HIERARCHY
ROOT Hips
{
	OFFSET 0.000000 0.000000 0.000000
	CHANNELS 6 Xposition Yposition Zposition Zrotation Yrotation Xrotation 
	JOINT LeftUpLeg_virtual
	{
		OFFSET 0.000000 0.000000 0.000000
		CHANNELS 3 Zrotation Yrotation Xrotation
		JOINT LeftUpLeg
		{
			OFFSET 8.479694 -4.795517 -0.379053
			CHANNELS 3 Zrotation Yrotation Xrotation
			JOINT LeftLeg
			{
				OFFSET 0.485052 -32.551468 0.112863
				CHANNELS 3 Zrotation Yrotation Xrotation
				JOINT LeftFoot
				{
					OFFSET 0.438033 -32.635670 -3.012641
					CHANNELS 3 Zrotation Yrotation Xrotation
					JOINT LeftToeBase
					{
						OFFSET 0.970169 -13.225353 11.864223
						CHANNELS 3 Zrotation Yrotation Xrotation
						End Site
						{
							OFFSET 0.000000 0.000000 0.000000
						}
					}
				}
			}
		}
	}
	JOINT RightUpLeg_virtual
	{
		OFFSET 0.000000 0.000000 0.000000
		CHANNELS 3 Zrotation Yrotation Xrotation
		JOINT RightUpLeg
		{
			OFFSET -8.479694 -4.795517 -0.379053
			CHANNELS 3 Zrotation Yrotation Xrotation
			JOINT RightLeg
			{
				OFFSET -0.484100 -32.551483 0.112903
				CHANNELS 3 Zrotation Yrotation Xrotation
				JOINT RightFoot
				{
					OFFSET -0.438985 -32.635651 -3.012681
					CHANNELS 3 Zrotation Yrotation Xrotation
					JOINT RightToeBase
					{
						OFFSET -0.970169 -13.225354 11.864223
						CHANNELS 3 Zrotation Yrotation Xrotation
						End Site
						{
							OFFSET 0.000000 0.000000 0.000000
						}
					}
				}
			}
		}
	}
	JOINT Spine_virtual
	{
		OFFSET 0.000000 0.000000 0.000000
		CHANNELS 3 Zrotation Yrotation Xrotation
		JOINT Spine
		{
			OFFSET 0.000000 7.722015 1.166203
			CHANNELS 3 Zrotation Yrotation Xrotation
			JOINT Spine1
			{
				OFFSET 0.000000 12.024086 0.248766
				CHANNELS 3 Zrotation Yrotation Xrotation
				JOINT Spine2
				{
					OFFSET -0.000000 11.503036 -0.491240
					CHANNELS 3 Zrotation Yrotation Xrotation
					JOINT Neck_virtual
					{
						OFFSET 0.000000 0.000000 0.000000
						CHANNELS 3 Zrotation Yrotation Xrotation
						JOINT Neck
						{
							OFFSET 0.000000 18.430687 -3.123054
							CHANNELS 3 Zrotation Yrotation Xrotation
							JOINT Head
							{
								OFFSET -0.000000 9.051071 1.034021
								CHANNELS 3 Zrotation Yrotation Xrotation
								End Site
								{
									OFFSET 0.000000 0.000000 0.000000
								}
							}
						}
					}
					JOINT LeftShoulder_virtual
					{
						OFFSET 0.000000 0.000000 0.000000
						CHANNELS 3 Zrotation Yrotation Xrotation
						JOINT LeftShoulder
						{
							OFFSET 6.197824 13.665230 -4.064723
							CHANNELS 3 Zrotation Yrotation Xrotation
							JOINT LeftArm
							{
								OFFSET 7.778132 -0.187073 -1.709282
								CHANNELS 3 Zrotation Yrotation Xrotation
								JOINT LeftForeArm
								{
									OFFSET 21.954697 0.000000 -2.041093
									CHANNELS 3 Zrotation Yrotation Xrotation
									JOINT LeftHand
									{
										OFFSET 22.992908 0.000000 -0.870901
										CHANNELS 3 Zrotation Yrotation Xrotation
										End Site
										{
											OFFSET 0.000000 0.000000 0.000000
										}
									}
								}
							}
						}
					}
					JOINT RightShoulder_virtual
					{
						OFFSET 0.000000 0.000000 0.000000
						CHANNELS 3 Zrotation Yrotation Xrotation
						JOINT RightShoulder
						{
							OFFSET -6.197824 13.665230 -4.064723
							CHANNELS 3 Zrotation Yrotation Xrotation
							JOINT RightArm
							{
								OFFSET -7.778132 -0.187073 -1.709282
								CHANNELS 3 Zrotation Yrotation Xrotation
								JOINT RightForeArm
								{
									OFFSET -21.954697 0.000000 -2.041093
									CHANNELS 3 Zrotation Yrotation Xrotation
									JOINT RightHand
									{
										OFFSET -22.992908 0.000000 -0.870901
										CHANNELS 3 Zrotation Yrotation Xrotation
										End Site
										{
											OFFSET 0.000000 0.000000 0.000000
										}
									}
								}
							}
						}
					}
				}
			}
		}
	}
}
MOTION
Frames: 8
Frame Time: 0.033333
7.379710 79.647438 -73.955086 179.724981 -34.551577 179.584702 -1.205248 1.359795 33.739786 4.811753 -0.860408 -50.628398 2.360056 2.372342 22.949559 -4.596277 -8.311288 -4.039739 0.000000 0.000000 0.000000 3.158034 -2.418942 33.855974 -6.129157 -0.919275 -55.873215 1.748411 7.850090 35.724423 7.338772 1.755879 -4.309100 0.000000 0.000000 0.000000 8.094486 -1.536842 45.817985 6.199038 1.740116 40.134369 -6.279692 -6.139431 7.024552 0.028230 -0.044307 -0.040310 -4.845950 -6.670083 8.570054 2.917774 -5.166203 -10.842988 0.000000 0.000000 0.000000 -3.572512 -5.836901 2.571919 13.013909 4.101028 2.517888 30.773899 -36.355745 -78.957117 -59.843829 -68.668427 34.051071 0.000000 0.000000 0.000000 -8.936003 -4.278047 2.896793 18.623026 6.511671 -7.208688 13.827493 58.296744 8.632626 -13.076875 38.076027 -3.806829 0.000000 0.000000 0.000000 
7.324699 79.649635 -74.052879 179.727412 -34.799168 179.610384 -1.118945 1.387360 33.700153 4.848584 -1.043993 -50.625656 2.292926 2.267817 23.046291 -4.453649 -8.405326 -4.087416 0.000000 0.000000 0.000000 3.263150 -2.394152 33.849243 -6.171569 -0.978246 -55.898104 1.761292 7.843259 36.044295 7.170473 1.639670 -4.456744 0.000000 0.000000 0.000000 8.183934 -1.493330 45.695144 6.221141 1.712464 40.061757 -6.369993 -6.211629 7.125538 0.005627 -0.089293 -0.085206 -4.950294 -6.750017 8.407294 2.938504 -5.381573 -11.386352 0.000000 0.000000 0.000000 -3.662629 -5.764416 2.556258 13.261935 4.197904 2.470765 30.745857 -36.861035 -79.161380 -59.907234 -68.903379 34.265194 0.000000 0.000000 0.000000 -8.987224 -4.239290 2.859511 19.018071 6.415973 -7.041653 13.871815 58.506881 8.719542 -13.079461 38.190620 -3.661163 0.000000 0.000000 0.000000 
7.252921 79.687225 -74.198395 179.744925 -35.174217 179.603977 -1.033509 1.529230 33.658209 4.913465 -1.267702 -50.560677 2.195214 2.095862 23.099097 -4.282628 -8.570789 -4.025577 0.000000 0.000000 0.000000 3.373527 -2.525616 33.816369 -6.530212 -0.658037 -55.923659 1.771161 7.743616 36.361581 6.925864 1.368806 -4.496385 0.000000 0.000000 0.000000 8.284143 -1.411141 45.703261 6.283824 1.726044 39.967808 -6.382457 -6.274431 6.941122 0.038507 -0.123619 -0.065938 -5.024484 -6.681303 8.352614 2.817779 -5.210629 -11.479429 0.000000 0.000000 0.000000 -3.741593 -5.743361 2.422774 13.421592 4.171413 2.435888 30.600224 -37.437565 -78.795548 -60.185585 -68.975164 34.844087 0.000000 0.000000 0.000000 -9.051397 -4.274832 2.783635 19.349658 6.294630 -6.819300 14.559969 58.687827 9.150606 -13.123075 38.203611 -3.694509 0.000000 0.000000 0.000000 
7.137093 79.755829 -74.375252 179.741742 -35.651931 179.650163 -0.952288 1.657052 33.602017 5.033253 -1.521484 -50.469381 2.050927 2.033455 23.125188 -4.111090 -8.787645 -3.871898 0.000000 0.000000 0.000000 3.588723 -2.656190 33.813832 -6.661669 -0.663883 -55.930606 1.730030 7.891735 36.669090 6.731522 1.085145 -4.409553 0.000000 0.000000 0.000000 8.373895 -1.462704 45.555121 6.409716 1.557391 39.910786 -6.392600 -6.196678 6.872296 0.030219 0.019714 -0.094744 -5.088409 -6.903666 8.168461 2.647343 -5.776240 -12.034266 0.000000 0.000000 0.000000 -3.787228 -5.910995 2.354504 13.292010 4.137775 2.352323 30.544746 -37.834351 -78.365431 -59.466782 -68.872438 34.462334 0.000000 0.000000 0.000000 -9.135848 -4.356620 2.626791 19.597022 6.253862 -6.623673 15.657809 58.682793 9.757548 -13.214123 38.443139 -3.726793 0.000000 0.000000 0.000000 
7.028368 79.864647 -74.623123 179.778406 -35.785779 179.687442 -0.871997 1.834635 33.605712 5.221439 -1.647642 -50.369377 1.896320 2.141236 23.122692 -3.956801 -8.983748 -3.625334 0.000000 0.000000 0.000000 3.957376 -2.352002 33.899854 -6.665889 -0.923094 -55.926620 1.671528 8.060214 36.993172 6.567854 0.836738 -4.229143 0.000000 0.000000 0.000000 8.472994 -1.347938 45.440507 6.580632 1.477136 39.884360 -6.379735 -6.246679 6.771628 -0.005321 -0.057845 -0.088507 -5.015745 -6.961530 7.903956 2.357755 -6.002135 -12.539199 0.000000 0.000000 0.000000 -3.802533 -5.846473 2.258478 13.025022 4.298804 2.402947 30.655197 -38.398804 -77.987366 -58.422344 -68.390548 33.753443 0.000000 0.000000 0.000000 -9.038756 -4.285320 2.407136 19.647720 6.483662 -6.309783 17.138336 58.640746 10.630836 -13.299087 38.698196 -3.786355 0.000000 0.000000 0.000000 
6.963817 79.999763 -74.954941 179.790168 -35.877990 179.733231 -0.836682 1.927146 33.680018 5.482318 -1.725080 -50.309118 1.772904 2.206848 23.153996 -3.839450 -9.108184 -3.301465 0.000000 0.000000 0.000000 4.366762 -2.089719 34.078826 -6.571854 -1.390648 -55.932477 1.722322 8.124566 37.259607 6.430997 0.600815 -4.044967 0.000000 0.000000 0.000000 8.560688 -1.332430 45.399800 6.743406 1.369045 39.865526 -6.305264 -6.254415 6.638500 0.006083 -0.075144 -0.079948 -4.970697 -6.996433 7.655962 1.986388 -6.161523 -13.113617 0.000000 0.000000 0.000000 -3.757314 -5.835101 2.130499 12.519569 4.375783 2.296646 30.929422 -38.864179 -77.371625 -57.017425 -67.717965 32.650527 0.000000 0.000000 0.000000 -8.965492 -4.349737 2.239114 19.491789 6.915860 -5.902649 18.861822 58.548614 11.713964 -13.358566 38.758469 -3.847860 0.000000 0.000000 0.000000 
6.929463 80.144730 -75.360504 179.759828 -35.873455 179.765087 -0.826736 1.963256 33.815437 5.794963 -1.799041 -50.292879 1.669323 2.289061 23.261519 -3.740062 -9.110052 -2.931641 0.000000 0.000000 0.000000 4.686155 -2.086309 34.240114 -6.564546 -1.718374 -55.964712 1.844375 8.103495 37.416695 6.331924 0.441723 -3.850839 0.000000 0.000000 0.000000 8.647837 -1.345930 45.539900 6.877922 1.272290 39.870874 -6.193273 -6.255581 6.519540 0.016107 -0.089744 -0.073860 -4.913756 -6.925719 7.497634 1.523680 -6.040694 -13.630114 0.000000 0.000000 0.000000 -3.609362 -5.762609 1.999025 11.956582 4.403116 2.185985 31.411767 -39.480235 -76.775021 -55.567199 -66.973577 31.427859 0.000000 0.000000 0.000000 -8.759572 -4.441890 2.097718 19.194718 7.342296 -5.504910 20.920873 58.538382 13.238934 -13.362206 38.457691 -3.895895 0.000000 0.000000 0.000000 
6.964674 80.243439 -75.847557 179.733587 -35.666664 179.796315 -0.791248 1.846320 33.999053 6.186373 -1.864482 -50.366689 1.584431 2.387594 23.483353 -3.675312 -8.963311 -2.598161 0.000000 0.000000 0.000000 4.863131 -2.534430 34.284981 -6.653007 -1.768607 -56.044800 2.048775 7.773017 37.468014 6.254814 0.355560 -3.722848 0.000000 0.000000 0.000000 8.667197 -1.389654 45.625558 7.005799 1.069527 39.970527 -6.052384 -6.260714 6.442433 0.032142 -0.046690 -0.052440 -4.853112 -7.021855 7.285444 1.342061 -6.129066 -14.595959 0.000000 0.000000 0.000000 -3.551179 -5.959338 1.952657 11.439748 4.554444 2.247468 31.733079 -39.952276 -76.232295 -54.182607 -66.094648 30.198356 0.000000 0.000000 0.000000 -8.684176 -4.425187 1.978248 18.821735 7.676640 -5.026261 22.997343 58.569466 14.987286 -13.490235 38.062780 -4.124706 0.000000 0.000000 0.000000 
